<svg viewBox="0 0 1200 760" width="1200" height="760" xmlns="http://www.w3.org/2000/svg" role="img" aria-label="polyrouter dashboard overview: KPI tiles for requests, spend, latency and success rate; a requests-over-time chart; spend by model; and a live request log with per-request routing layer, tokens, snapshot-priced cost and latency.">
  <!-- polyrouter dashboard hero — self-contained (no external fonts/scripts) so it renders
       as a GitHub <img>. Light theme, accent #4F5DFF, per STYLESEED.md. Mirrors the overview
       mockup on polyrouter.app. -->
  <defs>
    <clipPath id="win"><rect x="1" y="1" width="1198" height="758" rx="12"/></clipPath>
    <linearGradient id="area" x1="0" y1="0" x2="0" y2="1">
      <stop offset="0%" stop-color="#4f5dff" stop-opacity="0.20"/>
      <stop offset="100%" stop-color="#4f5dff" stop-opacity="0"/>
    </linearGradient>
    <style>
      text{font-family:'Helvetica Neue','Segoe UI',Arial,sans-serif;fill:#17181a}
      .mono{font-family:ui-monospace,'SF Mono','Menlo','Consolas',monospace}
      .t3{fill:#6a6c73}.t2{fill:#55575e}.fa{fill:#b4b6bc}.wht{fill:#ffffff}
      .grn{fill:#3bb273}.amb{fill:#c8901a}.acc{fill:#4f5dff}.dp{fill:#3f47c9}
      .lbl{font-size:12px;fill:#6a6c73}
      .sub{font-size:11.5px;fill:#6a6c73}
      .kpi{font-size:25px;font-weight:600;letter-spacing:-0.6px}
      .st{font-size:13px;font-weight:500;fill:#17181a}
    </style>
  </defs>

  <g clip-path="url(#win)">
    <!-- surfaces -->
    <rect x="1" y="1" width="1198" height="758" fill="#ffffff"/>
    <rect x="1" y="47" width="212" height="712" fill="#f7f7f5"/>

    <!-- window bar -->
    <circle cx="24" cy="24" r="5.5" fill="#d6d6d3"/>
    <circle cx="44" cy="24" r="5.5" fill="#d6d6d3"/>
    <circle cx="64" cy="24" r="5.5" fill="#d6d6d3"/>
    <rect x="470" y="12" width="260" height="24" rx="6" fill="#f4f4f2" stroke="#ececea"/>
    <text x="600" y="28.5" text-anchor="middle" class="mono t3" font-size="11.5">app.polyrouter.app/overview</text>
    <line x1="1" y1="47" x2="1199" y2="47" stroke="#ececea"/>
    <line x1="213" y1="47" x2="213" y2="759" stroke="#ececea"/>

    <!-- ===== sidebar ===== -->
    <g transform="translate(20,58) scale(0.205)">
      <line x1="20" y1="44" x2="60" y2="22" stroke="#4f5dff" stroke-width="6" stroke-linecap="round"/>
      <line x1="21" y1="44" x2="58" y2="44" stroke="#ececea" stroke-width="6" stroke-linecap="round"/>
      <line x1="20" y1="44" x2="60" y2="66" stroke="#ececea" stroke-width="6" stroke-linecap="round"/>
      <circle cx="15" cy="44" r="10.5" fill="#17181a"/>
      <circle cx="66" cy="20" r="10.5" fill="#4f5dff"/>
      <circle cx="66" cy="44" r="10.5" fill="#b4b6bc"/>
      <circle cx="66" cy="68" r="10.5" fill="#b4b6bc"/>
    </g>
    <text x="42" y="72" font-size="15" font-weight="600" letter-spacing="-0.3px">polyrouter</text>

    <!-- nav: Overview (active) -->
    <rect x="12" y="100" width="189" height="30" rx="7" fill="#eff0ff"/>
    <g fill="#3f47c9"><rect x="18" y="110" width="4.5" height="4.5" rx="1"/><rect x="25" y="110" width="4.5" height="4.5" rx="1"/><rect x="18" y="117" width="4.5" height="4.5" rx="1"/><rect x="25" y="117" width="4.5" height="4.5" rx="1"/></g>
    <text x="46" y="120" class="dp" font-size="13" font-weight="500">Overview</text>

    <g stroke="#83858c" stroke-width="1.6" stroke-linecap="round"><line x1="17" y1="147" x2="31" y2="147"/><line x1="17" y1="151" x2="31" y2="151"/><line x1="17" y1="155" x2="27" y2="155"/></g>
    <text x="46" y="154" class="t2" font-size="13">Requests</text>

    <path d="M24 178 L30 184 L24 190 L18 184 Z" fill="none" stroke="#83858c" stroke-width="1.5" stroke-linejoin="round"/>
    <text x="46" y="188" class="t2" font-size="13">Agents</text>

    <g fill="none" stroke="#83858c" stroke-width="1.4"><rect x="17.5" y="212.5" width="13" height="5" rx="1.6"/><rect x="17.5" y="219.5" width="13" height="5" rx="1.6"/></g>
    <text x="46" y="222" class="t2" font-size="13">Providers</text>

    <g stroke="#83858c" stroke-width="1.7" stroke-linecap="round"><line x1="17" y1="248" x2="31" y2="248"/><line x1="17" y1="252.5" x2="28" y2="252.5"/><line x1="17" y1="257" x2="24" y2="257"/></g>
    <text x="46" y="256" class="t2" font-size="13">Tiers</text>

    <circle cx="24" cy="286" r="6.5" fill="none" stroke="#83858c" stroke-width="1.5"/>
    <line x1="24" y1="286" x2="28.5" y2="282" stroke="#83858c" stroke-width="1.5" stroke-linecap="round"/>
    <text x="46" y="290" class="t2" font-size="13">Limits</text>

    <g stroke="#83858c" stroke-width="1.5" stroke-linecap="round"><line x1="17" y1="679" x2="31" y2="679"/><line x1="17" y1="685" x2="31" y2="685"/></g>
    <circle cx="22" cy="679" r="2.4" fill="#f7f7f5" stroke="#83858c" stroke-width="1.4"/>
    <circle cx="27" cy="685" r="2.4" fill="#f7f7f5" stroke="#83858c" stroke-width="1.4"/>
    <text x="46" y="686" class="t2" font-size="13">Settings</text>

    <rect x="12" y="702" width="189" height="40" rx="8" fill="none" stroke="#dcdcda" stroke-dasharray="4 4"/>
    <circle cx="33" cy="722" r="11" fill="#eff0ff"/>
    <g stroke="#3f47c9" stroke-width="1.7" stroke-linecap="round"><line x1="28.5" y1="722" x2="37.5" y2="722"/><line x1="33" y1="717.5" x2="33" y2="726.5"/></g>
    <text x="52" y="726" class="t2" font-size="11.5">Add a provider</text>

    <!-- ===== main: header ===== -->
    <text x="233" y="79" font-size="17" font-weight="600" letter-spacing="-0.3px">Overview</text>
    <text x="233" y="98" class="t3" font-size="12">Last 24 hours · all agents</text>
    <rect x="861" y="64" width="212" height="30" rx="7" fill="#ffffff" stroke="#ececea"/>
    <text x="873" y="83" class="mono t2" font-size="11.5">app.you/v1 · poly_live_9f2c…</text>
    <rect x="1083" y="64" width="96" height="30" rx="7" fill="#4f5dff"/>
    <text x="1131" y="83" text-anchor="middle" class="wht" font-size="12.5" font-weight="600">New agent</text>
    <line x1="213" y1="112" x2="1199" y2="112" stroke="#f1f1ef"/>

    <!-- ===== KPIs ===== -->
    <line x1="459.5" y1="112" x2="459.5" y2="196" stroke="#f1f1ef"/>
    <line x1="706" y1="112" x2="706" y2="196" stroke="#f1f1ef"/>
    <line x1="952.5" y1="112" x2="952.5" y2="196" stroke="#f1f1ef"/>

    <text x="233" y="140" class="lbl">Requests</text>
    <text x="233" y="171" class="kpi">48,231</text>
    <text x="233" y="189" class="sub"><tspan class="grn">▲ 12.4%</tspan> vs prev 24h</text>

    <text x="479.5" y="140" class="lbl">Spend</text>
    <text x="479.5" y="171" class="kpi">$37.14</text>
    <text x="479.5" y="189" class="sub">snapshot-priced · BYOK</text>

    <text x="726" y="140" class="lbl">Latency</text>
    <text x="726" y="171" class="kpi">842<tspan class="t3" font-size="14" font-weight="400"> ms</tspan></text>
    <text x="726" y="189" class="sub">p50 · 1.9s p95</text>

    <text x="972.5" y="140" class="lbl">Success rate</text>
    <text x="972.5" y="171" class="kpi">99.4<tspan class="t3" font-size="14" font-weight="400">%</tspan></text>
    <text x="972.5" y="189" class="sub">42 fallbacks · 0 mid-stream swaps</text>
    <line x1="213" y1="196" x2="1199" y2="196" stroke="#f1f1ef"/>

    <!-- ===== chart + spend ===== -->
    <line x1="812" y1="196" x2="812" y2="450" stroke="#f1f1ef"/>
    <text x="233" y="223" class="st">Requests over time</text>
    <rect x="676" y="215.5" width="8" height="8" rx="1.5" fill="#4f5dff"/>
    <text x="689" y="223" class="t3" font-size="11">requests · hourly</text>
    <g transform="translate(233,244) scale(0.7764)">
      <line x1="0" y1="47" x2="720" y2="47" stroke="#f1f1ef"/>
      <line x1="0" y1="95" x2="720" y2="95" stroke="#f1f1ef"/>
      <line x1="0" y1="143" x2="720" y2="143" stroke="#f1f1ef"/>
      <path d="M0,150 L30,144 L60,151 L90,132 L120,124 L150,131 L180,112 L210,101 L240,108 L270,86 L300,74 L330,83 L360,64 L390,71 L420,52 L450,60 L480,44 L510,55 L540,41 L570,33 L600,47 L630,38 L660,30 L690,36 L720,26 L720,190 L0,190 Z" fill="url(#area)"/>
      <path d="M0,150 L30,144 L60,151 L90,132 L120,124 L150,131 L180,112 L210,101 L240,108 L270,86 L300,74 L330,83 L360,64 L390,71 L420,52 L450,60 L480,44 L510,55 L540,41 L570,33 L600,47 L630,38 L660,30 L690,36 L720,26" fill="none" stroke="#4f5dff" stroke-width="2.6" stroke-linecap="round" stroke-linejoin="round"/>
      <circle cx="720" cy="26" r="8" fill="#4f5dff" fill-opacity="0.18"/>
      <circle cx="720" cy="26" r="4" fill="#4f5dff"/>
    </g>
    <text x="233" y="405" class="mono fa" font-size="10.5">00:00</text>
    <text x="373" y="405" text-anchor="middle" class="mono fa" font-size="10.5">06:00</text>
    <text x="512" y="405" text-anchor="middle" class="mono fa" font-size="10.5">12:00</text>
    <text x="652" y="405" text-anchor="middle" class="mono fa" font-size="10.5">18:00</text>
    <text x="792" y="405" text-anchor="end" class="mono fa" font-size="10.5">now</text>

    <text x="832" y="223" class="st">Spend by model</text>
    <text x="832" y="252" class="mono" font-size="11">claude-sonnet-5</text>
    <text x="1179" y="252" text-anchor="end" class="t2" font-size="11.5">$18.90</text>
    <rect x="832" y="259" width="347" height="5" rx="2.5" fill="#f1f1ef"/>
    <rect x="832" y="259" width="347" height="5" rx="2.5" fill="#4f5dff"/>

    <text x="832" y="290" class="mono" font-size="11">gpt-5-mini</text>
    <text x="1179" y="290" text-anchor="end" class="t2" font-size="11.5">$7.60</text>
    <rect x="832" y="297" width="347" height="5" rx="2.5" fill="#f1f1ef"/>
    <rect x="832" y="297" width="139" height="5" rx="2.5" fill="#808aff"/>

    <text x="832" y="328" class="mono" font-size="11">llama-3.3-70b</text>
    <text x="1179" y="328" text-anchor="end" class="t2" font-size="11.5">$4.10</text>
    <rect x="832" y="335" width="347" height="5" rx="2.5" fill="#f1f1ef"/>
    <rect x="832" y="335" width="76" height="5" rx="2.5" fill="#9ea6ff"/>

    <text x="832" y="366" class="mono" font-size="11">gpt-5</text>
    <text x="1179" y="366" text-anchor="end" class="t2" font-size="11.5">$3.80</text>
    <rect x="832" y="373" width="347" height="5" rx="2.5" fill="#f1f1ef"/>
    <rect x="832" y="373" width="69" height="5" rx="2.5" fill="#b5bbff"/>

    <text x="832" y="404" class="mono" font-size="11">claude-haiku-4.5</text>
    <text x="1179" y="404" text-anchor="end" class="t2" font-size="11.5">$2.74</text>
    <rect x="832" y="411" width="347" height="5" rx="2.5" fill="#f1f1ef"/>
    <rect x="832" y="411" width="52" height="5" rx="2.5" fill="#cacfff"/>
    <line x1="213" y1="450" x2="1199" y2="450" stroke="#f1f1ef"/>

    <!-- ===== live requests ===== -->
    <circle cx="233" cy="474" r="7" fill="#3bb273" fill-opacity="0.18"/>
    <circle cx="233" cy="474" r="3.5" fill="#3bb273"/>
    <text x="247" y="478" class="st">Live requests</text>

    <text x="233" y="502" class="t3" font-size="11">Time</text>
    <text x="320" y="502" class="t3" font-size="11">Model</text>
    <text x="660" y="502" class="t3" font-size="11">Layer</text>
    <text x="812" y="502" class="t3" font-size="11">Tokens</text>
    <text x="935" y="502" class="t3" font-size="11">Cost</text>
    <text x="1050" y="502" class="t3" font-size="11">Latency</text>
    <line x1="213" y1="512" x2="1199" y2="512" stroke="#f1f1ef"/>

    <!-- row 1 -->
    <text x="233" y="540" class="mono t3" font-size="11.5">12:04:41</text>
    <text x="320" y="540" class="mono" font-size="12">claude-sonnet-5</text>
    <rect x="660" y="528" width="40" height="17" rx="4" fill="#e9f6ef"/>
    <text x="680" y="540" text-anchor="middle" class="grn" font-size="10.5" font-weight="500">auto</text>
    <text x="812" y="540" class="mono t2" font-size="11.5">1.2k / 380</text>
    <text x="935" y="540" class="mono t2" font-size="11.5">$0.011</text>
    <text x="1050" y="540" class="mono t2" font-size="11.5">1.8s</text>
    <circle cx="1172" cy="536" r="3.5" fill="#3bb273"/>
    <line x1="213" y1="562" x2="1199" y2="562" stroke="#f1f1ef"/>

    <!-- row 2 -->
    <text x="233" y="584" class="mono t3" font-size="11.5">12:04:38</text>
    <text x="320" y="584" class="mono" font-size="12">gpt-5-mini</text>
    <rect x="660" y="572" width="38" height="17" rx="4" fill="#fbf3dc"/>
    <text x="679" y="584" text-anchor="middle" class="amb" font-size="10.5" font-weight="500">tier</text>
    <text x="812" y="584" class="mono t2" font-size="11.5">840 / 210</text>
    <text x="935" y="584" class="mono t2" font-size="11.5">$0.002</text>
    <text x="1050" y="584" class="mono t2" font-size="11.5">690ms</text>
    <circle cx="1172" cy="580" r="3.5" fill="#3bb273"/>
    <line x1="213" y1="606" x2="1199" y2="606" stroke="#f1f1ef"/>

    <!-- row 3 -->
    <text x="233" y="628" class="mono t3" font-size="11.5">12:04:35</text>
    <text x="320" y="628" class="mono" font-size="12">llama-3.3-70b</text>
    <rect x="660" y="616" width="54" height="17" rx="4" fill="#f1f1ef"/>
    <text x="687" y="628" text-anchor="middle" class="t3" font-size="10.5" font-weight="500">default</text>
    <text x="812" y="628" class="mono t2" font-size="11.5">2.1k / 512</text>
    <text x="935" y="628" class="mono t2" font-size="11.5">$0.001</text>
    <text x="1050" y="628" class="mono t2" font-size="11.5">1.1s</text>
    <circle cx="1172" cy="624" r="3.5" fill="#3bb273"/>
    <line x1="213" y1="650" x2="1199" y2="650" stroke="#f1f1ef"/>

    <!-- row 4 -->
    <text x="233" y="672" class="mono t3" font-size="11.5">12:04:31</text>
    <text x="320" y="672" class="mono" font-size="12">claude-sonnet-5</text>
    <rect x="660" y="660" width="58" height="17" rx="4" fill="#eff0ff" stroke="#b7bdf0"/>
    <text x="689" y="672" text-anchor="middle" class="dp" font-size="10.5" font-weight="500">explicit</text>
    <text x="812" y="672" class="mono t2" font-size="11.5">900 / 140</text>
    <text x="935" y="672" class="mono t2" font-size="11.5">$0.007</text>
    <text x="1050" y="672" class="mono t2" font-size="11.5">1.4s</text>
    <circle cx="1172" cy="668" r="3.5" fill="#3bb273"/>
    <line x1="213" y1="694" x2="1199" y2="694" stroke="#f1f1ef"/>

    <!-- row 5 -->
    <text x="233" y="716" class="mono t3" font-size="11.5">12:04:28</text>
    <text x="320" y="716" class="mono" font-size="12">gpt-5<tspan class="amb" font-size="10.5"> ↩ fallback</tspan></text>
    <rect x="660" y="704" width="40" height="17" rx="4" fill="#e9f6ef"/>
    <text x="680" y="716" text-anchor="middle" class="grn" font-size="10.5" font-weight="500">auto</text>
    <text x="812" y="716" class="mono t2" font-size="11.5">1.5k / 620</text>
    <text x="935" y="716" class="mono t2" font-size="11.5">$0.019</text>
    <text x="1050" y="716" class="mono t2" font-size="11.5">2.3s</text>
    <circle cx="1172" cy="712" r="3.5" fill="#c8901a"/>
  </g>

  <rect x="1" y="1" width="1198" height="758" rx="12" fill="none" stroke="#e4e4e2" stroke-width="1"/>
</svg>
